<svg width="54" height="19" viewBox="0 0 54 19" fill="none" xmlns="http://www.w3.org/2000/svg">
<path d="M2 8.25C1.30964 8.25 0.75 8.80964 0.75 9.5C0.75 10.1904 1.30964 10.75 2 10.75V8.25ZM52.8839 10.3839C53.372 9.89573 53.372 9.10427 52.8839 8.61612L44.9289 0.661165C44.4408 0.17301 43.6493 0.17301 43.1612 0.661165C42.673 1.14932 42.673 1.94078 43.1612 2.42893L50.2322 9.5L43.1612 16.5711C42.673 17.0592 42.673 17.8507 43.1612 18.3388C43.6493 18.827 44.4408 18.827 44.9289 18.3388L52.8839 10.3839ZM2 10.75H52V8.25H2V10.75Z" fill="#808080"/>
</svg>
